<svg width="3370" height="879" viewBox="0 0 3370 879" fill="none" xmlns="http://www.w3.org/2000/svg">
<rect width="3370" height="879" fill="#1B1E3A"/>
<path d="M1135.64 425V378.455H1151.91C1155.15 378.455 1157.83 379.015 1159.93 380.136C1162.04 381.242 1163.61 382.735 1164.64 384.614C1165.67 386.477 1166.18 388.545 1166.18 390.818C1166.18 392.818 1165.83 394.47 1165.11 395.773C1164.42 397.076 1163.49 398.106 1162.34 398.864C1161.2 399.621 1159.97 400.182 1158.64 400.545V401C1160.06 401.091 1161.49 401.591 1162.93 402.5C1164.37 403.409 1165.58 404.712 1166.55 406.409C1167.52 408.106 1168 410.182 1168 412.636C1168 414.97 1167.47 417.068 1166.41 418.932C1165.35 420.795 1163.67 422.273 1161.39 423.364C1159.1 424.455 1156.12 425 1152.45 425H1135.64ZM1141.27 420H1152.45C1156.14 420 1158.75 419.288 1160.3 417.864C1161.86 416.424 1162.64 414.682 1162.64 412.636C1162.64 411.061 1162.23 409.606 1161.43 408.273C1160.63 406.924 1159.48 405.848 1158 405.045C1156.52 404.227 1154.76 403.818 1152.73 403.818H1141.27V420ZM1141.27 398.909H1151.73C1153.42 398.909 1154.95 398.576 1156.32 397.909C1157.7 397.242 1158.79 396.303 1159.59 395.091C1160.41 393.879 1160.82 392.455 1160.82 390.818C1160.82 388.773 1160.11 387.038 1158.68 385.614C1157.26 384.174 1155 383.455 1151.91 383.455H1141.27V398.909ZM1216.53 401.727C1216.53 406.636 1215.65 410.879 1213.88 414.455C1212.1 418.03 1209.67 420.788 1206.58 422.727C1203.49 424.667 1199.96 425.636 1195.99 425.636C1192.02 425.636 1188.49 424.667 1185.4 422.727C1182.31 420.788 1179.88 418.03 1178.1 414.455C1176.33 410.879 1175.44 406.636 1175.44 401.727C1175.44 396.818 1176.33 392.576 1178.1 389C1179.88 385.424 1182.31 382.667 1185.4 380.727C1188.49 378.788 1192.02 377.818 1195.99 377.818C1199.96 377.818 1203.49 378.788 1206.58 380.727C1209.67 382.667 1212.1 385.424 1213.88 389C1215.65 392.576 1216.53 396.818 1216.53 401.727ZM1211.08 401.727C1211.08 397.697 1210.41 394.295 1209.06 391.523C1207.72 388.75 1205.91 386.652 1203.62 385.227C1201.35 383.803 1198.81 383.091 1195.99 383.091C1193.17 383.091 1190.62 383.803 1188.33 385.227C1186.06 386.652 1184.25 388.75 1182.9 391.523C1181.56 394.295 1180.9 397.697 1180.9 401.727C1180.9 405.758 1181.56 409.159 1182.9 411.932C1184.25 414.705 1186.06 416.803 1188.33 418.227C1190.62 419.652 1193.17 420.364 1195.99 420.364C1198.81 420.364 1201.35 419.652 1203.62 418.227C1205.91 416.803 1207.72 414.705 1209.06 411.932C1210.41 409.159 1211.08 405.758 1211.08 401.727ZM1262.92 378.455V425H1257.47L1232.1 388.455H1231.65V425H1226.01V378.455H1231.47L1256.92 415.091H1257.38V378.455H1262.92ZM1292.02 378.455H1297.65V411.727C1297.65 414.697 1297.11 417.22 1296.02 419.295C1294.93 421.371 1293.39 422.947 1291.4 424.023C1289.42 425.098 1287.08 425.636 1284.38 425.636C1281.84 425.636 1279.57 425.174 1277.59 424.25C1275.6 423.311 1274.04 421.977 1272.9 420.25C1271.77 418.523 1271.2 416.47 1271.2 414.091H1276.74C1276.74 415.409 1277.07 416.561 1277.72 417.545C1278.39 418.515 1279.3 419.273 1280.45 419.818C1281.6 420.364 1282.91 420.636 1284.38 420.636C1286 420.636 1287.38 420.295 1288.52 419.614C1289.65 418.932 1290.52 417.932 1291.11 416.614C1291.71 415.28 1292.02 413.652 1292.02 411.727V378.455ZM1348.22 401.727C1348.22 406.636 1347.34 410.879 1345.56 414.455C1343.79 418.03 1341.36 420.788 1338.27 422.727C1335.18 424.667 1331.65 425.636 1327.68 425.636C1323.71 425.636 1320.18 424.667 1317.09 422.727C1313.99 420.788 1311.56 418.03 1309.79 414.455C1308.02 410.879 1307.13 406.636 1307.13 401.727C1307.13 396.818 1308.02 392.576 1309.79 389C1311.56 385.424 1313.99 382.667 1317.09 380.727C1320.18 378.788 1323.71 377.818 1327.68 377.818C1331.65 377.818 1335.18 378.788 1338.27 380.727C1341.36 382.667 1343.79 385.424 1345.56 389C1347.34 392.576 1348.22 396.818 1348.22 401.727ZM1342.77 401.727C1342.77 397.697 1342.09 394.295 1340.74 391.523C1339.41 388.75 1337.6 386.652 1335.31 385.227C1333.04 383.803 1330.49 383.091 1327.68 383.091C1324.86 383.091 1322.3 383.803 1320.02 385.227C1317.74 386.652 1315.93 388.75 1314.59 391.523C1313.25 394.295 1312.59 397.697 1312.59 401.727C1312.59 405.758 1313.25 409.159 1314.59 411.932C1315.93 414.705 1317.74 416.803 1320.02 418.227C1322.3 419.652 1324.86 420.364 1327.68 420.364C1330.49 420.364 1333.04 419.652 1335.31 418.227C1337.6 416.803 1339.41 414.705 1340.74 411.932C1342.09 409.159 1342.77 405.758 1342.77 401.727ZM1388.24 378.455H1393.88V409.273C1393.88 412.455 1393.13 415.295 1391.63 417.795C1390.15 420.28 1388.05 422.242 1385.34 423.682C1382.62 425.106 1379.44 425.818 1375.79 425.818C1372.14 425.818 1368.96 425.106 1366.24 423.682C1363.53 422.242 1361.43 420.28 1359.93 417.795C1358.44 415.295 1357.7 412.455 1357.7 409.273V378.455H1363.34V408.818C1363.34 411.091 1363.84 413.114 1364.84 414.886C1365.84 416.644 1367.26 418.03 1369.11 419.045C1370.97 420.045 1373.2 420.545 1375.79 420.545C1378.38 420.545 1380.61 420.045 1382.47 419.045C1384.34 418.03 1385.76 416.644 1386.74 414.886C1387.74 413.114 1388.24 411.091 1388.24 408.818V378.455ZM1405.14 425V378.455H1420.86C1424.5 378.455 1427.48 379.076 1429.82 380.318C1432.15 381.545 1433.88 383.235 1435 385.386C1436.12 387.538 1436.68 389.985 1436.68 392.727C1436.68 395.47 1436.12 397.902 1435 400.023C1433.88 402.144 1432.16 403.811 1429.84 405.023C1427.52 406.22 1424.56 406.818 1420.95 406.818H1408.23V401.727H1420.77C1423.26 401.727 1425.26 401.364 1426.77 400.636C1428.3 399.909 1429.41 398.879 1430.09 397.545C1430.79 396.197 1431.14 394.591 1431.14 392.727C1431.14 390.864 1430.79 389.235 1430.09 387.841C1429.39 386.447 1428.28 385.371 1426.75 384.614C1425.22 383.841 1423.2 383.455 1420.68 383.455H1410.77V425H1405.14ZM1427.05 404.091L1438.5 425H1431.95L1420.68 404.091H1427.05ZM1452.44 378.455L1451.98 411.909H1446.71L1446.26 378.455H1452.44ZM1449.35 425.364C1448.23 425.364 1447.26 424.962 1446.46 424.159C1445.66 423.356 1445.26 422.394 1445.26 421.273C1445.26 420.152 1445.66 419.189 1446.46 418.386C1447.26 417.583 1448.23 417.182 1449.35 417.182C1450.47 417.182 1451.43 417.583 1452.23 418.386C1453.04 419.189 1453.44 420.152 1453.44 421.273C1453.44 422.015 1453.25 422.697 1452.87 423.318C1452.51 423.939 1452.01 424.439 1451.39 424.818C1450.79 425.182 1450.1 425.364 1449.35 425.364ZM1470.25 378.455L1469.8 411.909H1464.52L1464.07 378.455H1470.25ZM1467.16 425.364C1466.04 425.364 1465.08 424.962 1464.27 424.159C1463.47 423.356 1463.07 422.394 1463.07 421.273C1463.07 420.152 1463.47 419.189 1464.27 418.386C1465.08 417.583 1466.04 417.182 1467.16 417.182C1468.28 417.182 1469.24 417.583 1470.05 418.386C1470.85 419.189 1471.25 420.152 1471.25 421.273C1471.25 422.015 1471.06 422.697 1470.68 423.318C1470.32 423.939 1469.83 424.439 1469.2 424.818C1468.6 425.182 1467.92 425.364 1467.16 425.364ZM1488.06 378.455L1487.61 411.909H1482.34L1481.88 378.455H1488.06ZM1484.97 425.364C1483.85 425.364 1482.89 424.962 1482.09 424.159C1481.28 423.356 1480.88 422.394 1480.88 421.273C1480.88 420.152 1481.28 419.189 1482.09 418.386C1482.89 417.583 1483.85 417.182 1484.97 417.182C1486.09 417.182 1487.05 417.583 1487.86 418.386C1488.66 419.189 1489.06 420.152 1489.06 421.273C1489.06 422.015 1488.87 422.697 1488.49 423.318C1488.13 423.939 1487.64 424.439 1487.02 424.818C1486.41 425.182 1485.73 425.364 1484.97 425.364ZM1505.88 378.455L1505.42 411.909H1500.15L1499.69 378.455H1505.88ZM1502.78 425.364C1501.66 425.364 1500.7 424.962 1499.9 424.159C1499.09 423.356 1498.69 422.394 1498.69 421.273C1498.69 420.152 1499.09 419.189 1499.9 418.386C1500.7 417.583 1501.66 417.182 1502.78 417.182C1503.91 417.182 1504.87 417.583 1505.67 418.386C1506.47 419.189 1506.88 420.152 1506.88 421.273C1506.88 422.015 1506.69 422.697 1506.31 423.318C1505.94 423.939 1505.45 424.439 1504.83 424.818C1504.22 425.182 1503.54 425.364 1502.78 425.364ZM1572.78 393H1567.14C1566.81 391.379 1566.23 389.955 1565.39 388.727C1564.57 387.5 1563.57 386.47 1562.39 385.636C1561.23 384.788 1559.93 384.152 1558.51 383.727C1557.08 383.303 1555.6 383.091 1554.05 383.091C1551.23 383.091 1548.68 383.803 1546.39 385.227C1544.12 386.652 1542.31 388.75 1540.96 391.523C1539.63 394.295 1538.96 397.697 1538.96 401.727C1538.96 405.758 1539.63 409.159 1540.96 411.932C1542.31 414.705 1544.12 416.803 1546.39 418.227C1548.68 419.652 1551.23 420.364 1554.05 420.364C1555.6 420.364 1557.08 420.152 1558.51 419.727C1559.93 419.303 1561.23 418.674 1562.39 417.841C1563.57 416.992 1564.57 415.955 1565.39 414.727C1566.23 413.485 1566.81 412.061 1567.14 410.455H1572.78C1572.35 412.833 1571.58 414.962 1570.46 416.841C1569.34 418.72 1567.95 420.318 1566.28 421.636C1564.61 422.939 1562.74 423.932 1560.66 424.614C1558.6 425.295 1556.4 425.636 1554.05 425.636C1550.08 425.636 1546.55 424.667 1543.46 422.727C1540.37 420.788 1537.94 418.03 1536.16 414.455C1534.39 410.879 1533.51 406.636 1533.51 401.727C1533.51 396.818 1534.39 392.576 1536.16 389C1537.94 385.424 1540.37 382.667 1543.46 380.727C1546.55 378.788 1550.08 377.818 1554.05 377.818C1556.4 377.818 1558.6 378.159 1560.66 378.841C1562.74 379.523 1564.61 380.523 1566.28 381.841C1567.95 383.144 1569.34 384.735 1570.46 386.614C1571.58 388.477 1572.35 390.606 1572.78 393ZM1585.89 378.455V382.545C1585.89 383.788 1585.66 385.114 1585.2 386.523C1584.77 387.917 1584.11 389.273 1583.25 390.591C1582.4 391.894 1581.37 393.03 1580.16 394L1577.25 391.636C1578.2 390.273 1579.03 388.856 1579.73 387.386C1580.44 385.902 1580.8 384.318 1580.8 382.636V378.455H1585.89ZM1593.7 425V378.455H1621.79V383.455H1599.34V399.182H1620.34V404.182H1599.34V420H1622.15V425H1593.7ZM1657.4 390.091C1657.13 387.788 1656.02 386 1654.09 384.727C1652.15 383.455 1649.77 382.818 1646.95 382.818C1644.89 382.818 1643.09 383.152 1641.54 383.818C1640.01 384.485 1638.81 385.402 1637.95 386.568C1637.1 387.735 1636.68 389.061 1636.68 390.545C1636.68 391.788 1636.97 392.856 1637.56 393.75C1638.17 394.629 1638.94 395.364 1639.88 395.955C1640.82 396.53 1641.8 397.008 1642.84 397.386C1643.87 397.75 1644.81 398.045 1645.68 398.273L1650.4 399.545C1651.62 399.864 1652.96 400.303 1654.45 400.864C1655.95 401.424 1657.38 402.189 1658.74 403.159C1660.12 404.114 1661.26 405.341 1662.15 406.841C1663.05 408.341 1663.49 410.182 1663.49 412.364C1663.49 414.879 1662.84 417.152 1661.52 419.182C1660.21 421.212 1658.3 422.826 1655.79 424.023C1653.29 425.22 1650.25 425.818 1646.68 425.818C1643.34 425.818 1640.46 425.28 1638.02 424.205C1635.59 423.129 1633.68 421.629 1632.29 419.705C1630.91 417.78 1630.13 415.545 1629.95 413H1635.77C1635.92 414.758 1636.51 416.212 1637.54 417.364C1638.59 418.5 1639.9 419.348 1641.49 419.909C1643.1 420.455 1644.83 420.727 1646.68 420.727C1648.83 420.727 1650.76 420.379 1652.47 419.682C1654.18 418.97 1655.54 417.985 1656.54 416.727C1657.54 415.455 1658.04 413.97 1658.04 412.273C1658.04 410.727 1657.61 409.47 1656.74 408.5C1655.88 407.53 1654.74 406.742 1653.34 406.136C1651.93 405.53 1650.4 405 1648.77 404.545L1643.04 402.909C1639.4 401.864 1636.52 400.371 1634.4 398.432C1632.28 396.492 1631.22 393.955 1631.22 390.818C1631.22 388.212 1631.93 385.939 1633.34 384C1634.76 382.045 1636.67 380.53 1639.06 379.455C1641.47 378.364 1644.16 377.818 1647.13 377.818C1650.13 377.818 1652.8 378.356 1655.13 379.432C1657.46 380.492 1659.31 381.947 1660.68 383.795C1662.05 385.644 1662.78 387.742 1662.86 390.091H1657.4ZM1670.22 383.455V378.455H1705.12V383.455H1690.49V425H1684.85V383.455H1670.22ZM1746.19 425H1731.82V378.455H1746.82C1751.34 378.455 1755.2 379.386 1758.41 381.25C1761.63 383.098 1764.09 385.758 1765.8 389.227C1767.51 392.682 1768.37 396.818 1768.37 401.636C1768.37 406.485 1767.51 410.659 1765.78 414.159C1764.05 417.644 1761.54 420.326 1758.23 422.205C1754.93 424.068 1750.91 425 1746.19 425ZM1737.46 420H1745.82C1749.67 420 1752.86 419.258 1755.39 417.773C1757.92 416.288 1759.81 414.174 1761.05 411.432C1762.29 408.689 1762.91 405.424 1762.91 401.636C1762.91 397.879 1762.3 394.644 1761.07 391.932C1759.85 389.205 1758.01 387.114 1755.57 385.659C1753.13 384.189 1750.1 383.455 1746.46 383.455H1737.46V420ZM1808.37 378.455H1814.01V409.273C1814.01 412.455 1813.26 415.295 1811.76 417.795C1810.27 420.28 1808.17 422.242 1805.46 423.682C1802.75 425.106 1799.57 425.818 1795.91 425.818C1792.26 425.818 1789.08 425.106 1786.37 423.682C1783.66 422.242 1781.55 420.28 1780.05 417.795C1778.57 415.295 1777.82 412.455 1777.82 409.273V378.455H1783.46V408.818C1783.46 411.091 1783.96 413.114 1784.96 414.886C1785.96 416.644 1787.38 418.03 1789.23 419.045C1791.1 420.045 1793.32 420.545 1795.91 420.545C1798.51 420.545 1800.73 420.045 1802.6 419.045C1804.46 418.03 1805.88 416.644 1806.87 414.886C1807.87 413.114 1808.37 411.091 1808.37 408.818V378.455ZM1864.53 401.727C1864.53 406.636 1863.65 410.879 1861.88 414.455C1860.1 418.03 1857.67 420.788 1854.58 422.727C1851.49 424.667 1847.96 425.636 1843.99 425.636C1840.02 425.636 1836.49 424.667 1833.4 422.727C1830.31 420.788 1827.88 418.03 1826.1 414.455C1824.33 410.879 1823.44 406.636 1823.44 401.727C1823.44 396.818 1824.33 392.576 1826.1 389C1827.88 385.424 1830.31 382.667 1833.4 380.727C1836.49 378.788 1840.02 377.818 1843.99 377.818C1847.96 377.818 1851.49 378.788 1854.58 380.727C1857.67 382.667 1860.1 385.424 1861.88 389C1863.65 392.576 1864.53 396.818 1864.53 401.727ZM1859.08 401.727C1859.08 397.697 1858.41 394.295 1857.06 391.523C1855.72 388.75 1853.91 386.652 1851.62 385.227C1849.35 383.803 1846.81 383.091 1843.99 383.091C1841.17 383.091 1838.62 383.803 1836.33 385.227C1834.06 386.652 1832.25 388.75 1830.9 391.523C1829.56 394.295 1828.9 397.697 1828.9 401.727C1828.9 405.758 1829.56 409.159 1830.9 411.932C1832.25 414.705 1834.06 416.803 1836.33 418.227C1838.62 419.652 1841.17 420.364 1843.99 420.364C1846.81 420.364 1849.35 419.652 1851.62 418.227C1853.91 416.803 1855.72 414.705 1857.06 411.932C1858.41 409.159 1859.08 405.758 1859.08 401.727ZM1910.92 378.455V425H1905.47L1880.1 388.455H1879.65V425H1874.01V378.455H1879.47L1904.92 415.091H1905.38V378.455H1910.92ZM1954.02 393C1953.52 391.47 1952.86 390.098 1952.04 388.886C1951.24 387.659 1950.27 386.614 1949.15 385.75C1948.05 384.886 1946.79 384.227 1945.38 383.773C1943.97 383.318 1942.43 383.091 1940.74 383.091C1937.99 383.091 1935.48 383.803 1933.22 385.227C1930.96 386.652 1929.17 388.75 1927.84 391.523C1926.5 394.295 1925.84 397.697 1925.84 401.727C1925.84 405.758 1926.51 409.159 1927.86 411.932C1929.21 414.705 1931.03 416.803 1933.34 418.227C1935.64 419.652 1938.23 420.364 1941.11 420.364C1943.77 420.364 1946.12 419.795 1948.15 418.659C1950.2 417.508 1951.79 415.886 1952.93 413.795C1954.08 411.689 1954.65 409.212 1954.65 406.364L1956.38 406.727H1942.38V401.727H1960.11V406.727C1960.11 410.561 1959.29 413.894 1957.65 416.727C1956.03 419.561 1953.79 421.758 1950.93 423.318C1948.08 424.864 1944.8 425.636 1941.11 425.636C1936.99 425.636 1933.37 424.667 1930.24 422.727C1927.14 420.788 1924.71 418.03 1922.97 414.455C1921.24 410.879 1920.38 406.636 1920.38 401.727C1920.38 398.045 1920.87 394.735 1921.86 391.795C1922.86 388.841 1924.27 386.326 1926.09 384.25C1927.9 382.174 1930.05 380.583 1932.54 379.477C1935.02 378.371 1937.76 377.818 1940.74 377.818C1943.2 377.818 1945.49 378.189 1947.61 378.932C1949.74 379.659 1951.65 380.697 1953.31 382.045C1954.99 383.379 1956.4 384.977 1957.52 386.841C1958.64 388.689 1959.41 390.742 1959.84 393H1954.02ZM2024.67 378.455V425H2019.22L1993.85 388.455H1993.4V425H1987.76V378.455H1993.22L2018.67 415.091H2019.12V378.455H2024.67ZM2067.77 393C2067.27 391.47 2066.61 390.098 2065.79 388.886C2064.99 387.659 2064.02 386.614 2062.9 385.75C2061.8 384.886 2060.54 384.227 2059.13 383.773C2057.72 383.318 2056.18 383.091 2054.49 383.091C2051.74 383.091 2049.23 383.803 2046.97 385.227C2044.71 386.652 2042.92 388.75 2041.59 391.523C2040.25 394.295 2039.59 397.697 2039.59 401.727C2039.59 405.758 2040.26 409.159 2041.61 411.932C2042.96 414.705 2044.78 416.803 2047.09 418.227C2049.39 419.652 2051.98 420.364 2054.86 420.364C2057.52 420.364 2059.87 419.795 2061.9 418.659C2063.95 417.508 2065.54 415.886 2066.68 413.795C2067.83 411.689 2068.4 409.212 2068.4 406.364L2070.13 406.727H2056.13V401.727H2073.86V406.727C2073.86 410.561 2073.04 413.894 2071.4 416.727C2069.78 419.561 2067.54 421.758 2064.68 423.318C2061.83 424.864 2058.55 425.636 2054.86 425.636C2050.74 425.636 2047.12 424.667 2043.99 422.727C2040.89 420.788 2038.46 418.03 2036.72 414.455C2034.99 410.879 2034.13 406.636 2034.13 401.727C2034.13 398.045 2034.62 394.735 2035.61 391.795C2036.61 388.841 2038.02 386.326 2039.84 384.25C2041.65 382.174 2043.8 380.583 2046.29 379.477C2048.77 378.371 2051.51 377.818 2054.49 377.818C2056.95 377.818 2059.24 378.189 2061.36 378.932C2063.49 379.659 2065.4 380.697 2067.06 382.045C2068.74 383.379 2070.15 384.977 2071.27 386.841C2072.39 388.689 2073.16 390.742 2073.59 393H2067.77ZM2122.78 401.727C2122.78 406.636 2121.9 410.879 2120.12 414.455C2118.35 418.03 2115.92 420.788 2112.83 422.727C2109.74 424.667 2106.21 425.636 2102.24 425.636C2098.27 425.636 2094.74 424.667 2091.65 422.727C2088.56 420.788 2086.13 418.03 2084.35 414.455C2082.58 410.879 2081.69 406.636 2081.69 401.727C2081.69 396.818 2082.58 392.576 2084.35 389C2086.13 385.424 2088.56 382.667 2091.65 380.727C2094.74 378.788 2098.27 377.818 2102.24 377.818C2106.21 377.818 2109.74 378.788 2112.83 380.727C2115.92 382.667 2118.35 385.424 2120.12 389C2121.9 392.576 2122.78 396.818 2122.78 401.727ZM2117.33 401.727C2117.33 397.697 2116.66 394.295 2115.31 391.523C2113.97 388.75 2112.16 386.652 2109.88 385.227C2107.6 383.803 2105.06 383.091 2102.24 383.091C2099.42 383.091 2096.87 383.803 2094.58 385.227C2092.31 386.652 2090.5 388.75 2089.15 391.523C2087.81 394.295 2087.15 397.697 2087.15 401.727C2087.15 405.758 2087.81 409.159 2089.15 411.932C2090.5 414.705 2092.31 416.803 2094.58 418.227C2096.87 419.652 2099.42 420.364 2102.24 420.364C2105.06 420.364 2107.6 419.652 2109.88 418.227C2112.16 416.803 2113.97 414.705 2115.31 411.932C2116.66 409.159 2117.33 405.758 2117.33 401.727ZM2132.51 425.364C2131.38 425.364 2130.42 424.962 2129.62 424.159C2128.82 423.356 2128.41 422.394 2128.41 421.273C2128.41 420.152 2128.82 419.189 2129.62 418.386C2130.42 417.583 2131.38 417.182 2132.51 417.182C2133.63 417.182 2134.59 417.583 2135.39 418.386C2136.2 419.189 2136.6 420.152 2136.6 421.273C2136.6 422.015 2136.41 422.697 2136.03 423.318C2135.66 423.939 2135.17 424.439 2134.55 424.818C2133.95 425.182 2133.26 425.364 2132.51 425.364Z" fill="white"/>
<path d="M1212.45 552.455H1218.09V585.727C1218.09 588.697 1217.55 591.22 1216.45 593.295C1215.36 595.371 1213.83 596.947 1211.84 598.023C1209.86 599.098 1207.52 599.636 1204.82 599.636C1202.27 599.636 1200.01 599.174 1198.02 598.25C1196.04 597.311 1194.48 595.977 1193.34 594.25C1192.2 592.523 1191.64 590.47 1191.64 588.091H1197.18C1197.18 589.409 1197.51 590.561 1198.16 591.545C1198.83 592.515 1199.73 593.273 1200.89 593.818C1202.04 594.364 1203.35 594.636 1204.82 594.636C1206.44 594.636 1207.82 594.295 1208.95 593.614C1210.09 592.932 1210.95 591.932 1211.55 590.614C1212.15 589.28 1212.45 587.652 1212.45 585.727V552.455ZM1243.3 599.727C1239.93 599.727 1237.03 598.985 1234.59 597.5C1232.17 596 1230.3 593.909 1228.98 591.227C1227.67 588.53 1227.02 585.394 1227.02 581.818C1227.02 578.242 1227.67 575.091 1228.98 572.364C1230.3 569.621 1232.13 567.485 1234.48 565.955C1236.84 564.409 1239.6 563.636 1242.75 563.636C1244.57 563.636 1246.36 563.939 1248.14 564.545C1249.91 565.152 1251.52 566.136 1252.98 567.5C1254.43 568.848 1255.59 570.636 1256.45 572.864C1257.32 575.091 1257.75 577.833 1257.75 581.091V583.364H1230.84V578.727H1252.3C1252.3 576.758 1251.9 575 1251.11 573.455C1250.34 571.909 1249.23 570.689 1247.8 569.795C1246.37 568.902 1244.69 568.455 1242.75 568.455C1240.61 568.455 1238.77 568.985 1237.2 570.045C1235.66 571.091 1234.47 572.455 1233.64 574.136C1232.8 575.818 1232.39 577.621 1232.39 579.545V582.636C1232.39 585.273 1232.84 587.508 1233.75 589.341C1234.67 591.159 1235.95 592.545 1237.59 593.5C1239.23 594.439 1241.13 594.909 1243.3 594.909C1244.7 594.909 1245.98 594.712 1247.11 594.318C1248.27 593.909 1249.26 593.303 1250.09 592.5C1250.92 591.682 1251.57 590.667 1252.02 589.455L1257.2 590.909C1256.66 592.667 1255.74 594.212 1254.45 595.545C1253.17 596.864 1251.58 597.894 1249.68 598.636C1247.79 599.364 1245.66 599.727 1243.3 599.727ZM1308.64 571.909L1303.82 573.273C1303.52 572.47 1303.07 571.689 1302.48 570.932C1301.9 570.159 1301.11 569.523 1300.11 569.023C1299.11 568.523 1297.83 568.273 1296.27 568.273C1294.14 568.273 1292.36 568.765 1290.93 569.75C1289.52 570.72 1288.82 571.955 1288.82 573.455C1288.82 574.788 1289.3 575.841 1290.27 576.614C1291.24 577.386 1292.76 578.03 1294.82 578.545L1300 579.818C1303.12 580.576 1305.45 581.735 1306.98 583.295C1308.51 584.841 1309.27 586.833 1309.27 589.273C1309.27 591.273 1308.7 593.061 1307.55 594.636C1306.41 596.212 1304.82 597.455 1302.77 598.364C1300.73 599.273 1298.35 599.727 1295.64 599.727C1292.08 599.727 1289.13 598.955 1286.8 597.409C1284.46 595.864 1282.98 593.606 1282.36 590.636L1287.45 589.364C1287.94 591.242 1288.86 592.652 1290.2 593.591C1291.57 594.53 1293.35 595 1295.55 595C1298.05 595 1300.03 594.47 1301.5 593.409C1302.98 592.333 1303.73 591.045 1303.73 589.545C1303.73 588.333 1303.3 587.318 1302.45 586.5C1301.61 585.667 1300.3 585.045 1298.55 584.636L1292.73 583.273C1289.53 582.515 1287.18 581.341 1285.68 579.75C1284.2 578.144 1283.45 576.136 1283.45 573.727C1283.45 571.758 1284.01 570.015 1285.11 568.5C1286.23 566.985 1287.76 565.795 1289.68 564.932C1291.62 564.068 1293.82 563.636 1296.27 563.636C1299.73 563.636 1302.44 564.394 1304.41 565.909C1306.39 567.424 1307.8 569.424 1308.64 571.909ZM1339.35 584.727V564.091H1344.71V599H1339.35V593.091H1338.98C1338.16 594.864 1336.89 596.371 1335.16 597.614C1333.44 598.841 1331.26 599.455 1328.62 599.455C1326.44 599.455 1324.5 598.977 1322.8 598.023C1321.1 597.053 1319.77 595.598 1318.8 593.659C1317.83 591.705 1317.35 589.242 1317.35 586.273V564.091H1322.71V585.909C1322.71 588.455 1323.42 590.485 1324.85 592C1326.29 593.515 1328.12 594.273 1330.35 594.273C1331.68 594.273 1333.04 593.932 1334.41 593.25C1335.81 592.568 1336.98 591.523 1337.91 590.114C1338.87 588.705 1339.35 586.909 1339.35 584.727ZM1354.53 599V564.091H1359.9V599H1354.53ZM1357.26 558.273C1356.22 558.273 1355.31 557.917 1354.56 557.205C1353.81 556.492 1353.44 555.636 1353.44 554.636C1353.44 553.636 1353.81 552.78 1354.56 552.068C1355.31 551.356 1356.22 551 1357.26 551C1358.31 551 1359.2 551.356 1359.94 552.068C1360.7 552.78 1361.08 553.636 1361.08 554.636C1361.08 555.636 1360.7 556.492 1359.94 557.205C1359.2 557.917 1358.31 558.273 1357.26 558.273ZM1394.45 571.909L1389.63 573.273C1389.33 572.47 1388.88 571.689 1388.29 570.932C1387.71 570.159 1386.93 569.523 1385.93 569.023C1384.93 568.523 1383.65 568.273 1382.09 568.273C1379.95 568.273 1378.17 568.765 1376.74 569.75C1375.34 570.72 1374.63 571.955 1374.63 573.455C1374.63 574.788 1375.12 575.841 1376.09 576.614C1377.05 577.386 1378.57 578.03 1380.63 578.545L1385.81 579.818C1388.93 580.576 1391.26 581.735 1392.79 583.295C1394.32 584.841 1395.09 586.833 1395.09 589.273C1395.09 591.273 1394.51 593.061 1393.36 594.636C1392.22 596.212 1390.63 597.455 1388.59 598.364C1386.54 599.273 1384.16 599.727 1381.45 599.727C1377.89 599.727 1374.94 598.955 1372.61 597.409C1370.27 595.864 1368.8 593.606 1368.18 590.636L1373.27 589.364C1373.75 591.242 1374.67 592.652 1376.02 593.591C1377.38 594.53 1379.16 595 1381.36 595C1383.86 595 1385.84 594.47 1387.31 593.409C1388.8 592.333 1389.54 591.045 1389.54 589.545C1389.54 588.333 1389.12 587.318 1388.27 586.5C1387.42 585.667 1386.12 585.045 1384.36 584.636L1378.54 583.273C1375.34 582.515 1372.99 581.341 1371.49 579.75C1370.01 578.144 1369.27 576.136 1369.27 573.727C1369.27 571.758 1369.82 570.015 1370.93 568.5C1372.05 566.985 1373.57 565.795 1375.49 564.932C1377.43 564.068 1379.63 563.636 1382.09 563.636C1385.54 563.636 1388.25 564.394 1390.22 565.909C1392.21 567.424 1393.62 569.424 1394.45 571.909ZM1434.34 599.727C1431.43 599.727 1428.86 598.992 1426.64 597.523C1424.41 596.038 1422.67 593.947 1421.41 591.25C1420.15 588.538 1419.52 585.333 1419.52 581.636C1419.52 577.97 1420.15 574.788 1421.41 572.091C1422.67 569.394 1424.42 567.311 1426.66 565.841C1428.9 564.371 1431.49 563.636 1434.43 563.636C1436.7 563.636 1438.5 564.015 1439.82 564.773C1441.15 565.515 1442.17 566.364 1442.86 567.318C1443.58 568.258 1444.13 569.03 1444.52 569.636H1444.98V552.455H1450.34V599H1445.16V593.636H1444.52C1444.13 594.273 1443.57 595.076 1442.84 596.045C1442.11 597 1441.08 597.856 1439.73 598.614C1438.38 599.356 1436.58 599.727 1434.34 599.727ZM1435.07 594.909C1437.22 594.909 1439.04 594.348 1440.52 593.227C1442.01 592.091 1443.14 590.523 1443.91 588.523C1444.68 586.508 1445.07 584.182 1445.07 581.545C1445.07 578.939 1444.69 576.659 1443.93 574.705C1443.17 572.735 1442.05 571.205 1440.57 570.114C1439.08 569.008 1437.25 568.455 1435.07 568.455C1432.8 568.455 1430.9 569.038 1429.39 570.205C1427.89 571.356 1426.76 572.924 1426 574.909C1425.26 576.879 1424.89 579.091 1424.89 581.545C1424.89 584.03 1425.27 586.288 1426.02 588.318C1426.8 590.333 1427.93 591.939 1429.43 593.136C1430.95 594.318 1432.83 594.909 1435.07 594.909ZM1475.55 599.727C1472.18 599.727 1469.28 598.985 1466.84 597.5C1464.42 596 1462.55 593.909 1461.23 591.227C1459.92 588.53 1459.27 585.394 1459.27 581.818C1459.27 578.242 1459.92 575.091 1461.23 572.364C1462.55 569.621 1464.38 567.485 1466.73 565.955C1469.09 564.409 1471.85 563.636 1475 563.636C1476.82 563.636 1478.61 563.939 1480.39 564.545C1482.16 565.152 1483.77 566.136 1485.23 567.5C1486.68 568.848 1487.84 570.636 1488.7 572.864C1489.57 575.091 1490 577.833 1490 581.091V583.364H1463.09V578.727H1484.55C1484.55 576.758 1484.15 575 1483.36 573.455C1482.59 571.909 1481.48 570.689 1480.05 569.795C1478.62 568.902 1476.94 568.455 1475 568.455C1472.86 568.455 1471.02 568.985 1469.45 570.045C1467.91 571.091 1466.72 572.455 1465.89 574.136C1465.05 575.818 1464.64 577.621 1464.64 579.545V582.636C1464.64 585.273 1465.09 587.508 1466 589.341C1466.92 591.159 1468.2 592.545 1469.84 593.5C1471.48 594.439 1473.38 594.909 1475.55 594.909C1476.95 594.909 1478.23 594.712 1479.36 594.318C1480.52 593.909 1481.51 593.303 1482.34 592.5C1483.17 591.682 1483.82 590.667 1484.27 589.455L1489.45 590.909C1488.91 592.667 1487.99 594.212 1486.7 595.545C1485.42 596.864 1483.83 597.894 1481.93 598.636C1480.04 599.364 1477.91 599.727 1475.55 599.727ZM1472.27 559.364L1477.82 548.818H1484.09L1477 559.364H1472.27ZM1525.64 564.091L1512.73 599H1507.28L1494.37 564.091H1500.19L1509.82 591.909H1510.19L1519.82 564.091H1525.64ZM1546.11 599.727C1542.74 599.727 1539.84 598.985 1537.4 597.5C1534.98 596 1533.11 593.909 1531.79 591.227C1530.49 588.53 1529.84 585.394 1529.84 581.818C1529.84 578.242 1530.49 575.091 1531.79 572.364C1533.11 569.621 1534.94 567.485 1537.29 565.955C1539.65 564.409 1542.41 563.636 1545.56 563.636C1547.38 563.636 1549.18 563.939 1550.95 564.545C1552.72 565.152 1554.34 566.136 1555.79 567.5C1557.24 568.848 1558.4 570.636 1559.27 572.864C1560.13 575.091 1560.56 577.833 1560.56 581.091V583.364H1533.65V578.727H1555.11C1555.11 576.758 1554.71 575 1553.93 573.455C1553.15 571.909 1552.05 570.689 1550.61 569.795C1549.18 568.902 1547.5 568.455 1545.56 568.455C1543.43 568.455 1541.58 568.985 1540.02 570.045C1538.47 571.091 1537.28 572.455 1536.45 574.136C1535.62 575.818 1535.2 577.621 1535.2 579.545V582.636C1535.2 585.273 1535.65 587.508 1536.56 589.341C1537.49 591.159 1538.77 592.545 1540.4 593.5C1542.04 594.439 1543.94 594.909 1546.11 594.909C1547.52 594.909 1548.79 594.712 1549.93 594.318C1551.08 593.909 1552.07 593.303 1552.9 592.5C1553.74 591.682 1554.38 590.667 1554.84 589.455L1560.02 590.909C1559.47 592.667 1558.55 594.212 1557.27 595.545C1555.98 596.864 1554.39 597.894 1552.49 598.636C1550.6 599.364 1548.47 599.727 1546.11 599.727ZM1574.09 552.455V599H1568.72V552.455H1574.09ZM1598.09 599.727C1594.94 599.727 1592.17 598.977 1589.8 597.477C1587.43 595.977 1585.58 593.879 1584.25 591.182C1582.93 588.485 1582.27 585.333 1582.27 581.727C1582.27 578.091 1582.93 574.917 1584.25 572.205C1585.58 569.492 1587.43 567.386 1589.8 565.886C1592.17 564.386 1594.94 563.636 1598.09 563.636C1601.24 563.636 1604 564.386 1606.36 565.886C1608.74 567.386 1610.59 569.492 1611.91 572.205C1613.24 574.917 1613.91 578.091 1613.91 581.727C1613.91 585.333 1613.24 588.485 1611.91 591.182C1610.59 593.879 1608.74 595.977 1606.36 597.477C1604 598.977 1601.24 599.727 1598.09 599.727ZM1598.09 594.909C1600.48 594.909 1602.45 594.295 1604 593.068C1605.55 591.841 1606.69 590.227 1607.43 588.227C1608.17 586.227 1608.55 584.061 1608.55 581.727C1608.55 579.394 1608.17 577.22 1607.43 575.205C1606.69 573.189 1605.55 571.561 1604 570.318C1602.45 569.076 1600.48 568.455 1598.09 568.455C1595.7 568.455 1593.73 569.076 1592.18 570.318C1590.64 571.561 1589.49 573.189 1588.75 575.205C1588.01 577.22 1587.64 579.394 1587.64 581.727C1587.64 584.061 1588.01 586.227 1588.75 588.227C1589.49 590.227 1590.64 591.841 1592.18 593.068C1593.73 594.295 1595.7 594.909 1598.09 594.909ZM1622.1 612.091V564.091H1627.28V569.636H1627.91C1628.31 569.03 1628.85 568.258 1629.55 567.318C1630.26 566.364 1631.28 565.515 1632.6 564.773C1633.93 564.015 1635.73 563.636 1638.01 563.636C1640.95 563.636 1643.54 564.371 1645.78 565.841C1648.02 567.311 1649.77 569.394 1651.03 572.091C1652.29 574.788 1652.91 577.97 1652.91 581.636C1652.91 585.333 1652.29 588.538 1651.03 591.25C1649.77 593.947 1648.03 596.038 1645.8 597.523C1643.57 598.992 1641.01 599.727 1638.1 599.727C1635.85 599.727 1634.06 599.356 1632.71 598.614C1631.36 597.856 1630.32 597 1629.6 596.045C1628.87 595.076 1628.31 594.273 1627.91 593.636H1627.46V612.091H1622.1ZM1627.37 581.545C1627.37 584.182 1627.76 586.508 1628.53 588.523C1629.3 590.523 1630.43 592.091 1631.91 593.227C1633.4 594.348 1635.22 594.909 1637.37 594.909C1639.61 594.909 1641.48 594.318 1642.98 593.136C1644.5 591.939 1645.63 590.333 1646.39 588.318C1647.16 586.288 1647.55 584.03 1647.55 581.545C1647.55 579.091 1647.17 576.879 1646.41 574.909C1645.67 572.924 1644.54 571.356 1643.03 570.205C1641.53 569.038 1639.64 568.455 1637.37 568.455C1635.19 568.455 1633.35 569.008 1631.87 570.114C1630.38 571.205 1629.26 572.735 1628.51 574.705C1627.75 576.659 1627.37 578.939 1627.37 581.545ZM1661.1 612.091V564.091H1666.28V569.636H1666.91C1667.31 569.03 1667.85 568.258 1668.55 567.318C1669.26 566.364 1670.28 565.515 1671.6 564.773C1672.93 564.015 1674.73 563.636 1677.01 563.636C1679.95 563.636 1682.54 564.371 1684.78 565.841C1687.02 567.311 1688.77 569.394 1690.03 572.091C1691.29 574.788 1691.91 577.97 1691.91 581.636C1691.91 585.333 1691.29 588.538 1690.03 591.25C1688.77 593.947 1687.03 596.038 1684.8 597.523C1682.57 598.992 1680.01 599.727 1677.1 599.727C1674.85 599.727 1673.06 599.356 1671.71 598.614C1670.36 597.856 1669.32 597 1668.6 596.045C1667.87 595.076 1667.31 594.273 1666.91 593.636H1666.46V612.091H1661.1ZM1666.37 581.545C1666.37 584.182 1666.76 586.508 1667.53 588.523C1668.3 590.523 1669.43 592.091 1670.91 593.227C1672.4 594.348 1674.22 594.909 1676.37 594.909C1678.61 594.909 1680.48 594.318 1681.98 593.136C1683.5 591.939 1684.63 590.333 1685.39 588.318C1686.16 586.288 1686.55 584.03 1686.55 581.545C1686.55 579.091 1686.17 576.879 1685.41 574.909C1684.67 572.924 1683.54 571.356 1682.03 570.205C1680.53 569.038 1678.64 568.455 1676.37 568.455C1674.19 568.455 1672.35 569.008 1670.87 570.114C1669.38 571.205 1668.26 572.735 1667.51 574.705C1666.75 576.659 1666.37 578.939 1666.37 581.545ZM1714.73 599.727C1711.37 599.727 1708.47 598.985 1706.03 597.5C1703.6 596 1701.73 593.909 1700.41 591.227C1699.11 588.53 1698.46 585.394 1698.46 581.818C1698.46 578.242 1699.11 575.091 1700.41 572.364C1701.73 569.621 1703.57 567.485 1705.91 565.955C1708.28 564.409 1711.04 563.636 1714.19 563.636C1716.01 563.636 1717.8 563.939 1719.57 564.545C1721.35 565.152 1722.96 566.136 1724.41 567.5C1725.87 568.848 1727.03 570.636 1727.89 572.864C1728.76 575.091 1729.19 577.833 1729.19 581.091V583.364H1702.28V578.727H1723.73C1723.73 576.758 1723.34 575 1722.55 573.455C1721.78 571.909 1720.67 570.689 1719.23 569.795C1717.81 568.902 1716.13 568.455 1714.19 568.455C1712.05 568.455 1710.2 568.985 1708.64 570.045C1707.1 571.091 1705.91 572.455 1705.07 574.136C1704.24 575.818 1703.82 577.621 1703.82 579.545V582.636C1703.82 585.273 1704.28 587.508 1705.19 589.341C1706.11 591.159 1707.39 592.545 1709.03 593.5C1710.66 594.439 1712.57 594.909 1714.73 594.909C1716.14 594.909 1717.41 594.712 1718.55 594.318C1719.7 593.909 1720.7 593.303 1721.53 592.5C1722.36 591.682 1723.01 590.667 1723.46 589.455L1728.64 590.909C1728.1 592.667 1727.18 594.212 1725.89 595.545C1724.6 596.864 1723.01 597.894 1721.12 598.636C1719.23 599.364 1717.1 599.727 1714.73 599.727ZM1759.35 584.727V564.091H1764.71V599H1759.35V593.091H1758.98C1758.16 594.864 1756.89 596.371 1755.16 597.614C1753.44 598.841 1751.26 599.455 1748.62 599.455C1746.44 599.455 1744.5 598.977 1742.8 598.023C1741.1 597.053 1739.77 595.598 1738.8 593.659C1737.83 591.705 1737.35 589.242 1737.35 586.273V564.091H1742.71V585.909C1742.71 588.455 1743.42 590.485 1744.85 592C1746.29 593.515 1748.12 594.273 1750.35 594.273C1751.68 594.273 1753.04 593.932 1754.41 593.25C1755.81 592.568 1756.98 591.523 1757.91 590.114C1758.87 588.705 1759.35 586.909 1759.35 584.727ZM1774.53 599V564.091H1779.72V569.364H1780.08C1780.72 567.636 1781.87 566.235 1783.53 565.159C1785.2 564.083 1787.08 563.545 1789.17 563.545C1789.56 563.545 1790.06 563.553 1790.65 563.568C1791.24 563.583 1791.69 563.606 1791.99 563.636V569.091C1791.81 569.045 1791.39 568.977 1790.74 568.886C1790.1 568.78 1789.43 568.727 1788.72 568.727C1787.02 568.727 1785.5 569.083 1784.17 569.795C1782.85 570.492 1781.81 571.462 1781.03 572.705C1780.28 573.932 1779.9 575.333 1779.9 576.909V599H1774.53ZM1831.89 564.091V568.636H1813.07V564.091H1831.89ZM1818.71 599V559.273C1818.71 557.273 1819.18 555.606 1820.12 554.273C1821.06 552.939 1822.28 551.939 1823.78 551.273C1825.28 550.606 1826.86 550.273 1828.53 550.273C1829.85 550.273 1830.92 550.379 1831.76 550.591C1832.59 550.803 1833.21 551 1833.62 551.182L1832.07 555.818C1831.8 555.727 1831.42 555.614 1830.94 555.477C1830.47 555.341 1829.85 555.273 1829.07 555.273C1827.3 555.273 1826.02 555.72 1825.23 556.614C1824.46 557.508 1824.07 558.818 1824.07 560.545V599H1818.71ZM1861.41 584.727V564.091H1866.77V599H1861.41V593.091H1861.05C1860.23 594.864 1858.95 596.371 1857.23 597.614C1855.5 598.841 1853.32 599.455 1850.68 599.455C1848.5 599.455 1846.56 598.977 1844.86 598.023C1843.17 597.053 1841.83 595.598 1840.86 593.659C1839.89 591.705 1839.41 589.242 1839.41 586.273V564.091H1844.77V585.909C1844.77 588.455 1845.48 590.485 1846.91 592C1848.35 593.515 1850.18 594.273 1852.41 594.273C1853.74 594.273 1855.1 593.932 1856.48 593.25C1857.87 592.568 1859.04 591.523 1859.98 590.114C1860.93 588.705 1861.41 586.909 1861.41 584.727ZM1881.96 552.455V599H1876.6V552.455H1881.96ZM1897.15 552.455V599H1891.78V552.455H1897.15ZM1949.7 571.909L1944.88 573.273C1944.58 572.47 1944.13 571.689 1943.54 570.932C1942.96 570.159 1942.18 569.523 1941.18 569.023C1940.18 568.523 1938.9 568.273 1937.34 568.273C1935.2 568.273 1933.42 568.765 1931.99 569.75C1930.59 570.72 1929.88 571.955 1929.88 573.455C1929.88 574.788 1930.37 575.841 1931.34 576.614C1932.3 577.386 1933.82 578.03 1935.88 578.545L1941.06 579.818C1944.18 580.576 1946.51 581.735 1948.04 583.295C1949.57 584.841 1950.34 586.833 1950.34 589.273C1950.34 591.273 1949.76 593.061 1948.61 594.636C1947.47 596.212 1945.88 597.455 1943.84 598.364C1941.79 599.273 1939.41 599.727 1936.7 599.727C1933.14 599.727 1930.19 598.955 1927.86 597.409C1925.52 595.864 1924.05 593.606 1923.43 590.636L1928.52 589.364C1929 591.242 1929.92 592.652 1931.27 593.591C1932.63 594.53 1934.41 595 1936.61 595C1939.11 595 1941.09 594.47 1942.56 593.409C1944.05 592.333 1944.79 591.045 1944.79 589.545C1944.79 588.333 1944.37 587.318 1943.52 586.5C1942.67 585.667 1941.37 585.045 1939.61 584.636L1933.79 583.273C1930.59 582.515 1928.24 581.341 1926.74 579.75C1925.26 578.144 1924.52 576.136 1924.52 573.727C1924.52 571.758 1925.07 570.015 1926.18 568.5C1927.3 566.985 1928.82 565.795 1930.74 564.932C1932.68 564.068 1934.88 563.636 1937.34 563.636C1940.79 563.636 1943.5 564.394 1945.47 565.909C1947.46 567.424 1948.87 569.424 1949.7 571.909ZM1973.59 564.091V568.636H1955.5V564.091H1973.59ZM1960.77 555.727H1966.14V589C1966.14 590.515 1966.36 591.652 1966.8 592.409C1967.25 593.152 1967.83 593.652 1968.52 593.909C1969.23 594.152 1969.98 594.273 1970.77 594.273C1971.36 594.273 1971.85 594.242 1972.23 594.182C1972.61 594.106 1972.91 594.045 1973.14 594L1974.23 598.818C1973.86 598.955 1973.36 599.091 1972.7 599.227C1972.05 599.379 1971.23 599.455 1970.23 599.455C1968.71 599.455 1967.23 599.129 1965.77 598.477C1964.33 597.826 1963.14 596.833 1962.18 595.5C1961.24 594.167 1960.77 592.485 1960.77 590.455V555.727ZM1991.93 599.818C1989.72 599.818 1987.71 599.402 1985.91 598.568C1984.11 597.72 1982.67 596.5 1981.61 594.909C1980.55 593.303 1980.02 591.364 1980.02 589.091C1980.02 587.091 1980.42 585.47 1981.2 584.227C1981.99 582.97 1983.05 581.985 1984.36 581.273C1985.68 580.561 1987.14 580.03 1988.73 579.682C1990.33 579.318 1991.95 579.03 1993.57 578.818C1995.69 578.545 1997.41 578.341 1998.73 578.205C2000.06 578.053 2001.03 577.803 2001.64 577.455C2002.26 577.106 2002.57 576.5 2002.57 575.636V575.455C2002.57 573.212 2001.95 571.47 2000.73 570.227C1999.52 568.985 1997.67 568.364 1995.2 568.364C1992.64 568.364 1990.64 568.924 1989.18 570.045C1987.73 571.167 1986.7 572.364 1986.11 573.636L1981.02 571.818C1981.93 569.697 1983.14 568.045 1984.66 566.864C1986.19 565.667 1987.86 564.833 1989.66 564.364C1991.48 563.879 1993.27 563.636 1995.02 563.636C1996.14 563.636 1997.43 563.773 1998.89 564.045C2000.36 564.303 2001.77 564.841 2003.14 565.659C2004.52 566.477 2005.66 567.712 2006.57 569.364C2007.48 571.015 2007.93 573.227 2007.93 576V599H2002.57V594.273H2002.3C2001.93 595.03 2001.33 595.841 2000.48 596.705C1999.63 597.568 1998.5 598.303 1997.09 598.909C1995.68 599.515 1993.96 599.818 1991.93 599.818ZM1992.75 595C1994.87 595 1996.66 594.583 1998.11 593.75C1999.58 592.917 2000.69 591.841 2001.43 590.523C2002.19 589.205 2002.57 587.818 2002.57 586.364V581.455C2002.34 581.727 2001.84 581.977 2001.07 582.205C2000.31 582.417 1999.43 582.606 1998.43 582.773C1997.45 582.924 1996.48 583.061 1995.55 583.182C1994.62 583.288 1993.87 583.379 1993.3 583.455C1991.9 583.636 1990.6 583.932 1989.39 584.341C1988.19 584.735 1987.22 585.333 1986.48 586.136C1985.75 586.924 1985.39 588 1985.39 589.364C1985.39 591.227 1986.08 592.636 1987.45 593.591C1988.85 594.53 1990.61 595 1992.75 595ZM2031.9 599.727C2028.63 599.727 2025.81 598.955 2023.45 597.409C2021.09 595.864 2019.27 593.735 2017.99 591.023C2016.72 588.311 2016.09 585.212 2016.09 581.727C2016.09 578.182 2016.74 575.053 2018.04 572.341C2019.36 569.614 2021.19 567.485 2023.54 565.955C2025.9 564.409 2028.66 563.636 2031.81 563.636C2034.27 563.636 2036.48 564.091 2038.45 565C2040.42 565.909 2042.03 567.182 2043.29 568.818C2044.55 570.455 2045.33 572.364 2045.63 574.545H2040.27C2039.86 572.955 2038.95 571.545 2037.54 570.318C2036.15 569.076 2034.27 568.455 2031.9 568.455C2029.81 568.455 2027.98 569 2026.4 570.091C2024.84 571.167 2023.62 572.689 2022.74 574.659C2021.88 576.614 2021.45 578.909 2021.45 581.545C2021.45 584.242 2021.87 586.591 2022.72 588.591C2023.59 590.591 2024.8 592.144 2026.36 593.25C2027.93 594.356 2029.78 594.909 2031.9 594.909C2033.3 594.909 2034.56 594.667 2035.7 594.182C2036.84 593.697 2037.8 593 2038.59 592.091C2039.37 591.182 2039.93 590.091 2040.27 588.818H2045.63C2045.33 590.879 2044.58 592.735 2043.38 594.386C2042.2 596.023 2040.63 597.326 2038.68 598.295C2036.74 599.25 2034.48 599.727 2031.9 599.727ZM2058.47 586.273L2058.38 579.636H2059.47L2074.74 564.091H2081.38L2065.11 580.545H2064.65L2058.47 586.273ZM2053.47 599V552.455H2058.84V599H2053.47ZM2075.65 599L2062.02 581.727L2065.84 578L2082.47 599H2075.65Z" fill="white"/>
</svg>
